<svg width="45" height="45" viewBox="0 0 45 45" fill="none" xmlns="http://www.w3.org/2000/svg">
<rect width="45" height="45" fill="#815CDA"/>
<path d="M34.3497 15.7988C35.0326 15.1161 35.4164 14.19 35.4165 13.2244C35.4166 12.2587 35.0331 11.3325 34.3504 10.6496C33.6676 9.96669 32.7415 9.58296 31.7759 9.58284C30.8102 9.58272 29.884 9.96621 29.2011 10.649L11.9625 27.8914C11.6626 28.1904 11.4409 28.5586 11.3167 28.9635L9.61041 34.5848C9.57703 34.6965 9.57451 34.8152 9.60312 34.9282C9.63173 35.0412 9.69039 35.1444 9.7729 35.2268C9.85541 35.3092 9.95867 35.3677 10.0717 35.3961C10.1848 35.4245 10.3035 35.4218 10.4151 35.3882L16.0377 33.6832C16.4423 33.5602 16.8104 33.3398 17.1098 33.0413L34.3497 15.7988Z" stroke="white" stroke-width="2" stroke-linecap="round" stroke-linejoin="round"/>
<path d="M26.375 13.4583L31.5417 18.625" stroke="white" stroke-width="2" stroke-linecap="round" stroke-linejoin="round"/>
</svg>
