<svg width="178" height="178" viewBox="0 0 178 178" fill="none" xmlns="http://www.w3.org/2000/svg">
<circle cx="89" cy="89" r="89" fill="#1F614E"/>
<g clip-path="url(#clip0_149_30)">
<path d="M52.1781 110.93L37.7874 91.9223V110.762C37.7874 111.219 37.4049 111.603 36.9507 111.603H26.2653C25.8111 111.603 25.4286 111.219 25.4286 110.762V65.8252C25.4286 65.3686 25.7872 64.9841 26.2653 64.9841H36.9507C37.4049 64.9841 37.7874 65.3686 37.7874 65.8252V83.7279L51.5327 65.633C51.8434 65.2244 52.3454 64.9841 52.8713 64.9841H66.1146C66.4493 64.9841 66.6644 65.3926 66.4493 65.657L49.9549 87.3324C49.7159 87.6448 49.7159 88.0534 49.9549 88.3417L66.4971 110.137C66.9035 110.618 66.8079 110.978 66.7361 111.147C66.6644 111.315 66.4254 111.603 65.8278 111.603H53.5168C52.9909 111.603 52.4889 111.363 52.1781 110.93Z" fill="white"/>
<path d="M105.247 85.5542L108.426 110.858C108.474 111.267 108.833 111.603 109.263 111.603H133.407C146.315 111.603 156.833 101.15 156.833 88.2937C156.833 75.4374 146.315 64.9841 133.407 64.9841H119.279C118.92 64.9841 118.633 65.3206 118.681 65.681L120.283 75.149C120.331 75.4374 120.57 75.6536 120.881 75.6536H131.207C139.072 75.6536 143.973 80.5078 143.973 88.2937C143.973 92.1626 142.777 95.3586 140.53 97.5694C138.283 99.7802 135.032 100.934 131.088 100.934H120.211C119.996 100.934 119.829 100.789 119.781 100.573L113.996 65.681C113.924 65.2725 113.59 64.9841 113.159 64.9841H102.402C102.067 64.9841 101.757 65.2004 101.637 65.5128L92.123 89.3029L82.6328 65.5128C82.4894 65.2004 82.1786 64.9841 81.8439 64.9841H71.6127C71.2063 64.9841 70.8477 65.2725 70.776 65.681L63.3416 109.993C63.3177 110.402 63.4372 110.834 63.7002 111.123C63.9631 111.435 64.3456 111.603 64.752 111.603H74.7203C75.1267 111.603 75.4853 111.291 75.557 110.882L79.1905 85.5542L89.3979 111.075C89.5174 111.387 89.8282 111.603 90.1628 111.603H94.0832C94.4179 111.603 94.7287 111.387 94.8482 111.075L105.247 85.5542Z" fill="white"/>
</g>
<defs>
<clipPath id="clip0_149_30">
<rect width="131.381" height="46.619" fill="white" transform="translate(25.4286 64.9841)"/>
</clipPath>
</defs>
</svg>
